<svg width="126" height="77" viewBox="0 0 126 77" fill="none" xmlns="http://www.w3.org/2000/svg">
<path fill-rule="evenodd" clip-rule="evenodd" d="M13.6216 0C6.09861 0 0 6.09861 0 13.6216C0 21.1446 6.09861 27.2432 13.6216 27.2432C21.1446 27.2432 27.2432 21.1446 27.2432 13.6216C27.2432 6.09861 21.1446 0 13.6216 0ZM15.0414 14.22V21.6308H11.9751V14.2202H10.4432V11.6664H11.9751V10.1331C11.9751 8.04969 12.8402 6.81081 15.2978 6.81081H17.3438V9.36493H16.0649C15.1082 9.36493 15.0449 9.72183 15.0449 10.3879L15.0414 11.6661H17.3583L17.0871 14.22H15.0414Z" fill="#7D7D7D"/>
<path fill-rule="evenodd" clip-rule="evenodd" d="M112.378 0C104.855 0 98.7567 6.09861 98.7567 13.6216C98.7567 21.1446 104.855 27.2432 112.378 27.2432C119.901 27.2432 126 21.1446 126 13.6216C126 6.09861 119.901 0 112.378 0ZM109.383 6.40062C110.158 6.36536 110.406 6.35673 112.379 6.35673H112.377C114.35 6.35673 114.597 6.36536 115.372 6.40062C116.145 6.43604 116.674 6.55848 117.137 6.73814C117.615 6.92355 118.019 7.17176 118.423 7.57588C118.827 7.97969 119.076 8.38501 119.262 8.86283C119.44 9.32476 119.563 9.85268 119.599 10.6261C119.634 11.401 119.643 11.6486 119.643 13.6217C119.643 15.5947 119.634 15.8417 119.599 16.6166C119.563 17.3898 119.44 17.9178 119.262 18.3799C119.076 18.8576 118.827 19.2629 118.423 19.6667C118.02 20.0708 117.615 20.3196 117.137 20.5052C116.675 20.6849 116.146 20.8073 115.373 20.8427C114.598 20.878 114.351 20.8866 112.378 20.8866C110.405 20.8866 110.158 20.878 109.383 20.8427C108.61 20.8073 108.081 20.6849 107.619 20.5052C107.142 20.3196 106.736 20.0708 106.333 19.6667C105.929 19.2629 105.681 18.8576 105.495 18.3798C105.315 17.9178 105.193 17.3899 105.157 16.6165C105.122 15.8416 105.113 15.5947 105.113 13.6217C105.113 11.6486 105.123 11.4009 105.157 10.6259C105.192 9.85283 105.315 9.32476 105.495 8.86268C105.681 8.38501 105.929 7.97969 106.333 7.57588C106.737 7.17192 107.142 6.9237 107.62 6.73814C108.082 6.55848 108.61 6.43604 109.383 6.40062Z" fill="#7D7D7D"/>
<path fill-rule="evenodd" clip-rule="evenodd" d="M111.727 7.66588C111.854 7.66568 111.99 7.66574 112.137 7.66581L112.379 7.66588C114.319 7.66588 114.549 7.67284 115.315 7.70765C116.023 7.74004 116.407 7.8584 116.664 7.95784C117.003 8.08952 117.244 8.24692 117.498 8.5012C117.753 8.75547 117.91 8.99763 118.042 9.33666C118.142 9.59245 118.26 9.97689 118.292 10.6852C118.327 11.4511 118.335 11.6811 118.335 13.62C118.335 15.5588 118.327 15.7888 118.292 16.5547C118.26 17.263 118.142 17.6475 118.042 17.9032C117.91 18.2423 117.753 18.4837 117.498 18.7378C117.244 18.9921 117.003 19.1495 116.664 19.2812C116.408 19.3811 116.023 19.4991 115.315 19.5315C114.549 19.5663 114.319 19.5739 112.379 19.5739C110.439 19.5739 110.209 19.5663 109.443 19.5315C108.735 19.4988 108.351 19.3804 108.094 19.281C107.755 19.1493 107.513 18.9919 107.259 18.7376C107.005 18.4834 106.847 18.2418 106.715 17.9026C106.616 17.6468 106.497 17.2624 106.465 16.5541C106.43 15.7882 106.423 15.5582 106.423 13.6181C106.423 11.6781 106.43 11.4492 106.465 10.6834C106.497 9.97507 106.616 9.59063 106.715 9.33454C106.847 8.99551 107.005 8.75335 107.259 8.49908C107.513 8.2448 107.755 8.0874 108.094 7.95542C108.35 7.85552 108.735 7.73747 109.443 7.70493C110.114 7.67466 110.373 7.66558 111.727 7.66406V7.66588ZM116.257 8.87215C115.776 8.87215 115.385 9.26219 115.385 9.74364C115.385 10.2249 115.776 10.6154 116.257 10.6154C116.738 10.6154 117.129 10.2249 117.129 9.74364C117.129 9.26234 116.738 8.87185 116.257 8.87185V8.87215ZM108.648 13.6217C108.648 11.5614 110.319 9.89094 112.379 9.89086C114.439 9.89086 116.109 11.5613 116.109 13.6217C116.109 15.6821 114.439 17.3518 112.379 17.3518C110.319 17.3518 108.648 15.6821 108.648 13.6217Z" fill="#7D7D7D"/>
<path d="M112.379 11.2002C113.716 11.2002 114.801 12.2843 114.801 13.6218C114.801 14.9592 113.716 16.0435 112.379 16.0435C111.042 16.0435 109.957 14.9592 109.957 13.6218C109.957 12.2843 111.042 11.2002 112.379 11.2002Z" fill="#7D7D7D"/>
<path fill-rule="evenodd" clip-rule="evenodd" d="M0 62.4322C0 69.9552 6.09861 76.0538 13.6216 76.0538C21.1446 76.0538 27.2432 69.9552 27.2432 62.4322C27.2432 54.9092 21.1446 48.8105 13.6216 48.8105C6.09861 48.8105 0 54.9092 0 62.4322ZM11.1244 68.6754L11.3561 65.2032L11.3559 65.203L17.6723 59.5029C17.9496 59.2569 17.6118 59.1369 17.2438 59.3601L9.44849 64.2781L6.08134 63.2271C5.35418 63.0045 5.34896 62.5048 6.24459 62.1456L19.3656 57.0862C19.9649 56.8141 20.5433 57.2301 20.3145 58.1473L18.08 68.6772C17.924 69.4254 17.4719 69.6044 16.8454 69.2587L13.4416 66.7439L11.8054 68.3349C11.8003 68.3399 11.7951 68.3449 11.79 68.3498C11.6071 68.528 11.4557 68.6754 11.1244 68.6754Z" fill="#7D7D7D"/>
<path fill-rule="evenodd" clip-rule="evenodd" d="M98.7567 62.4322C98.7567 69.9552 104.855 76.0538 112.378 76.0538C119.901 76.0538 126 69.9552 126 62.4322C126 54.9092 119.901 48.8105 112.378 48.8105C104.855 48.8105 98.7567 54.9092 98.7567 62.4322ZM120.927 61.9109C120.925 66.3758 117.293 70.0088 112.827 70.0107H112.824C111.468 70.0102 110.136 69.6701 108.953 69.0248L104.659 70.1511L105.809 65.9539C105.1 64.7255 104.727 63.3321 104.727 61.9045C104.729 57.4386 108.363 53.8052 112.827 53.8052C114.994 53.8061 117.028 54.6496 118.557 56.1807C120.086 57.7116 120.928 59.7467 120.927 61.9109Z" fill="#7D7D7D"/>
<path fill-rule="evenodd" clip-rule="evenodd" d="M106.604 68.2269L109.152 67.5585L109.398 67.7044C110.432 68.3178 111.617 68.6423 112.825 68.6428H112.827C116.538 68.6428 119.558 65.6227 119.56 61.9105C119.56 60.1116 118.861 58.4202 117.59 57.1477C116.319 55.8751 114.628 55.174 112.83 55.1733C109.117 55.1733 106.096 58.1932 106.095 61.9051C106.094 63.1771 106.45 64.416 107.124 65.4879L107.284 65.7426L106.604 68.2269ZM116.631 63.6548C116.772 63.7231 116.867 63.7691 116.908 63.8371C116.959 63.9215 116.959 64.3267 116.79 64.7995C116.621 65.2722 115.813 65.7037 115.424 65.7618C115.075 65.8139 114.634 65.8357 114.149 65.6816C113.855 65.5883 113.478 65.4638 112.995 65.2553C111.098 64.436 109.816 62.5971 109.574 62.2495C109.557 62.2252 109.545 62.2081 109.538 62.1993L109.536 62.1971C109.429 62.0542 108.712 61.0967 108.712 60.1057C108.712 59.1734 109.17 58.6848 109.38 58.4599C109.395 58.4445 109.408 58.4303 109.42 58.4173C109.606 58.2147 109.825 58.164 109.96 58.164C110.095 58.164 110.23 58.1653 110.348 58.1712C110.362 58.1719 110.377 58.1718 110.393 58.1717C110.511 58.171 110.658 58.1702 110.803 58.5186C110.859 58.6527 110.94 58.8515 111.027 59.0611C111.201 59.4851 111.393 59.9536 111.427 60.0214C111.478 60.1227 111.511 60.2408 111.444 60.3759C111.434 60.3962 111.424 60.4153 111.415 60.4336C111.365 60.537 111.327 60.6131 111.241 60.7135C111.208 60.753 111.173 60.7956 111.138 60.8382C111.068 60.9229 110.998 61.0077 110.938 61.0681C110.837 61.169 110.731 61.2785 110.849 61.4812C110.967 61.6838 111.373 62.3465 111.975 62.8832C112.622 63.4601 113.184 63.7039 113.469 63.8275C113.524 63.8516 113.57 63.8712 113.603 63.8877C113.805 63.9891 113.923 63.9721 114.041 63.8371C114.159 63.702 114.547 63.2461 114.682 63.0435C114.817 62.841 114.952 62.8747 115.137 62.9422C115.323 63.0098 116.318 63.4994 116.52 63.6007C116.56 63.6204 116.597 63.6383 116.631 63.6548Z" fill="#7D7D7D"/>
</svg>
