<svg width="20.314026" height="20.313965" viewBox="0 0 20.314 20.314" fill="none" xmlns="http://www.w3.org/2000/svg" xmlns:xlink="http://www.w3.org/1999/xlink">
	<desc>
			Created with Pixso.
	</desc>
	<defs/>
	<path id="Vector" d="M16.03 14.61L20.31 18.89L18.89 20.31L14.61 16.03C13.02 17.3 11.04 18 9 18C4.03 18 0 13.96 0 9C0 4.03 4.03 0 9 0C13.96 0 18 4.03 18 9C18 11.04 17.3 13.02 16.03 14.61ZM14.02 13.87C15.29 12.56 16 10.82 16 9C16 5.13 12.86 2 9 2C5.13 2 2 5.13 2 9C2 12.86 5.13 16 9 16C10.82 16 12.56 15.29 13.87 14.02L14.02 13.87Z" fill="#2E2E2E" fill-opacity="1.000000" fill-rule="nonzero"/>
</svg>
