<svg width="51.625000" height="51.625000" viewBox="0 0 51.625 51.625" fill="none" xmlns="http://www.w3.org/2000/svg" xmlns:xlink="http://www.w3.org/1999/xlink">
	<desc>
			Created with Pixso.
	</desc>
	<defs/>
	<path id="Vector" d="M0 51.62C0 46.4 2.07 41.4 5.76 37.71C9.44 34.03 14.45 31.95 19.66 31.95C24.88 31.95 29.88 34.03 33.57 37.71C37.26 41.4 39.33 46.4 39.33 51.62L34.41 51.62C34.41 47.71 32.86 43.96 30.09 41.19C27.33 38.42 23.57 36.87 19.66 36.87C15.75 36.87 12 38.42 9.23 41.19C6.47 43.96 4.91 47.71 4.91 51.62L0 51.62ZM19.66 29.5C11.51 29.5 4.91 22.89 4.91 14.75C4.91 6.6 11.51 0 19.66 0C27.81 0 34.41 6.6 34.41 14.75C34.41 22.89 27.81 29.5 19.66 29.5ZM19.66 24.58C25.09 24.58 29.5 20.18 29.5 14.75C29.5 9.31 25.09 4.91 19.66 4.91C14.23 4.91 9.83 9.31 9.83 14.75C9.83 20.18 14.23 24.58 19.66 24.58ZM40.03 33.68C43.48 35.24 46.41 37.76 48.47 40.94C50.53 44.12 51.62 47.83 51.62 51.62L46.7 51.62C46.7 48.78 45.88 46 44.34 43.61C42.8 41.22 40.6 39.33 38.01 38.17L40.02 33.68L40.03 33.68ZM38.34 5.93C40.81 6.95 42.93 8.68 44.42 10.91C45.91 13.13 46.7 15.75 46.7 18.43C46.7 21.81 45.44 25.06 43.17 27.55C40.9 30.04 37.77 31.59 34.41 31.9L34.41 26.95C36.23 26.69 37.92 25.85 39.23 24.56C40.54 23.27 41.4 21.59 41.69 19.77C41.98 17.95 41.67 16.09 40.82 14.46C39.97 12.83 38.62 11.51 36.97 10.7L38.34 5.93Z" fill="#D2B574" fill-opacity="1.000000" fill-rule="nonzero"/>
</svg>
