<svg width="54.088806" height="49.166748" viewBox="0 0 54.0888 49.1667" fill="none" xmlns="http://www.w3.org/2000/svg" xmlns:xlink="http://www.w3.org/1999/xlink">
	<desc>
			Created with Pixso.
	</desc>
	<defs/>
	<path id="Vector" d="M49.16 27.63L49.16 44.25L51.62 44.25L51.62 49.16L2.45 49.16L2.45 44.25L4.91 44.25L4.91 27.63C3.4 26.62 2.16 25.25 1.3 23.65C0.44 22.04 -0.01 20.25 0 18.43C0 16.4 0.55 14.44 1.55 12.77L8.22 1.22C8.43 0.85 8.74 0.54 9.12 0.32C9.49 0.11 9.92 0 10.35 0L43.73 0C44.16 0 44.58 0.11 44.96 0.32C45.33 0.54 45.64 0.85 45.86 1.22L52.5 12.73C53.97 15.17 54.44 18.08 53.82 20.85C53.19 23.63 51.53 26.05 49.16 27.63ZM44.25 29.43C42.55 29.62 40.84 29.41 39.24 28.83C37.65 28.25 36.2 27.31 35.03 26.08C33.99 27.16 32.75 28.02 31.38 28.61C30.01 29.2 28.53 29.5 27.04 29.5C25.54 29.5 24.07 29.2 22.69 28.61C21.32 28.02 20.08 27.17 19.05 26.09C17.87 27.32 16.43 28.26 14.83 28.84C13.23 29.42 11.52 29.62 9.83 29.43L9.83 44.25L44.25 44.25L44.25 29.43L44.25 29.43ZM11.77 4.91L5.79 15.27C5.21 16.7 5.19 18.31 5.74 19.76C6.29 21.2 7.36 22.39 8.75 23.08C10.14 23.77 11.74 23.91 13.22 23.47C14.71 23.03 15.97 22.05 16.77 20.72C17.59 18.66 20.5 18.66 21.33 20.72C21.78 21.86 22.57 22.84 23.59 23.53C24.61 24.22 25.81 24.58 27.04 24.58C28.27 24.58 29.47 24.22 30.48 23.53C31.5 22.84 32.29 21.86 32.74 20.72C33.57 18.66 36.48 18.66 37.31 20.72C37.63 21.5 38.1 22.21 38.71 22.8C39.32 23.4 40.04 23.86 40.83 24.15C41.63 24.45 42.47 24.58 43.32 24.54C44.17 24.5 45 24.28 45.75 23.9C46.51 23.52 47.18 22.99 47.72 22.34C48.27 21.68 48.67 20.93 48.9 20.11C49.14 19.3 49.21 18.44 49.1 17.6C48.99 16.76 48.7 15.96 48.26 15.23L42.3 4.91L11.77 4.91L11.77 4.91Z" fill="#D2B574" fill-opacity="1.000000" fill-rule="nonzero"/>
</svg>
