<svg width="44.250031" height="53.414551" viewBox="0 0 44.25 53.4146" fill="none" xmlns="http://www.w3.org/2000/svg" xmlns:xlink="http://www.w3.org/1999/xlink">
	<desc>
			Created with Pixso.
	</desc>
	<defs/>
	<path id="Vector" d="M22.12 53.41L6.48 37.76C3.38 34.67 1.27 30.73 0.42 26.44C-0.43 22.14 0 17.7 1.68 13.65C3.35 9.61 6.19 6.15 9.83 3.72C13.47 1.29 17.74 0 22.12 0C26.5 0 30.77 1.29 34.41 3.72C38.05 6.15 40.89 9.61 42.56 13.65C44.24 17.7 44.67 22.14 43.82 26.44C42.97 30.73 40.86 34.67 37.76 37.76L22.12 53.41ZM34.29 34.29C36.7 31.88 38.33 28.82 39 25.48C39.66 22.14 39.32 18.68 38.02 15.54C36.72 12.39 34.51 9.7 31.68 7.81C28.85 5.92 25.52 4.91 22.12 4.91C18.72 4.91 15.39 5.92 12.56 7.81C9.73 9.7 7.52 12.39 6.22 15.54C4.92 18.68 4.58 22.14 5.24 25.48C5.91 28.82 7.54 31.88 9.95 34.29L22.12 46.46L34.29 34.29ZM22.12 27.04C20.82 27.04 19.57 26.52 18.64 25.6C17.72 24.67 17.2 23.42 17.2 22.12C17.2 20.82 17.72 19.57 18.64 18.64C19.57 17.72 20.82 17.2 22.12 17.2C23.42 17.2 24.67 17.72 25.6 18.64C26.52 19.57 27.04 20.82 27.04 22.12C27.04 23.42 26.52 24.67 25.6 25.6C24.67 26.52 23.42 27.04 22.12 27.04Z" fill="#D2B574" fill-opacity="1.000000" fill-rule="nonzero"/>
</svg>
