<svg width="113" height="113" viewBox="0 0 113 113" fill="none" xmlns="http://www.w3.org/2000/svg">
<g clip-path="url(#clip0_397_1694)">
<path d="M56.2048 111.803C87.0015 111.803 111.967 86.8375 111.967 56.0407C111.967 25.244 87.0015 0.27832 56.2048 0.27832C25.4081 0.27832 0.442383 25.244 0.442383 56.0407C0.442383 86.8375 25.4081 111.803 56.2048 111.803Z" fill="#F0F0F0"/>
<path d="M56.2048 112.082C45.1209 112.082 34.286 108.795 25.0701 102.637C15.8542 96.4795 8.67131 87.7271 4.42971 77.4869C0.1881 67.2468 -0.921698 55.9788 1.24065 45.1079C3.40301 34.2371 8.74039 24.2515 16.5779 16.414C24.4153 8.57657 34.4009 3.23919 45.2718 1.07684C56.1426 -1.08552 67.4106 0.0242819 77.6507 4.26589C87.8909 8.5075 96.6433 15.6904 102.801 24.9063C108.959 34.1222 112.246 44.9571 112.246 56.041C112.246 70.904 106.341 85.1582 95.8317 95.6679C85.322 106.178 71.0678 112.082 56.2048 112.082ZM56.2048 0.55775C45.2313 0.55775 34.5041 3.81178 25.38 9.90836C16.2558 16.0049 9.14437 24.6702 4.94498 34.8085C0.745584 44.9467 -0.35317 56.1025 1.78766 66.8652C3.9285 77.6279 9.21276 87.5141 16.9722 95.2735C24.7317 103.033 34.6179 108.317 45.3806 110.458C56.1432 112.599 67.2991 111.5 77.4373 107.301C87.5755 103.101 96.2408 95.99 102.337 86.8658C108.434 77.7416 111.688 67.0145 111.688 56.041C111.688 48.7548 110.253 41.54 107.465 34.8085C104.676 28.0769 100.589 21.9605 95.4374 16.8084C90.2853 11.6563 84.1688 7.56945 77.4373 4.78116C70.7058 1.99287 63.491 0.55775 56.2048 0.55775Z" fill="#E3E3E3"/>
<path d="M82.9118 58.2885L72.7466 68.4537C71.9431 68.1453 71.2215 67.6561 70.6375 67.0241C70.0535 66.392 69.6228 65.634 69.3787 64.8087C68.8123 62.8205 69.0535 60.6891 70.0499 58.8778C71.1083 56.9408 70.8801 53.2837 68.7029 49.6159L57.0115 37.9225C70.6774 35.2875 82.1896 45.5487 82.9118 58.2885Z" fill="#A04F55"/>
<path d="M69.7499 66.9006C69.5409 66.9008 69.3359 66.8423 69.1585 66.7317C68.9811 66.6211 68.8384 66.4629 68.7466 66.2751C68.183 65.016 67.9202 63.6431 67.9791 62.2649C68.0379 60.8867 68.4167 59.5412 69.0855 58.3347C69.9043 56.83 69.7305 53.589 67.819 50.3004L61.8921 44.3721C61.7853 44.2693 61.7001 44.1462 61.6414 44.0101C61.5827 43.8739 61.5517 43.7274 61.5503 43.5792C61.5489 43.4309 61.5771 43.2838 61.6332 43.1466C61.6893 43.0094 61.7722 42.8847 61.877 42.7798C61.9818 42.675 62.1065 42.5921 62.2438 42.536C62.381 42.4799 62.5281 42.4518 62.6763 42.4532C62.8246 42.4546 62.9711 42.4855 63.1072 42.5442C63.2434 42.6029 63.3665 42.6881 63.4693 42.7949L69.4976 48.8232C69.5634 48.8889 69.6207 48.9626 69.668 49.0427C71.8567 52.7286 72.407 56.8951 71.0372 59.4159C70.5362 60.3064 70.2495 61.3013 70.1998 62.3218C70.1502 63.3423 70.339 64.3604 70.7513 65.2952C70.8342 65.4652 70.8725 65.6534 70.8627 65.8423C70.8529 66.0311 70.7953 66.2144 70.6953 66.3749C70.5953 66.5354 70.4561 66.6678 70.2908 66.7598C70.1256 66.8517 69.9397 66.9002 69.7506 66.9006H69.7499Z" fill="#444444"/>
<path d="M40.2146 72.6144C40.0681 72.6146 39.9231 72.5859 39.7878 72.5299C39.6524 72.474 39.5295 72.3918 39.426 72.2882L22.5909 55.4558C22.382 55.2466 22.2646 54.9631 22.2646 54.6675C22.2646 54.3719 22.382 54.0884 22.5909 53.8793L24.8392 51.6302C24.5022 50.9599 24.3849 50.2005 24.5038 49.4598C24.6227 48.719 24.9718 48.0345 25.5017 47.5033L37.8226 35.1797C37.9254 35.0729 38.0485 34.9877 38.1847 34.929C38.3208 34.8703 38.4673 34.8393 38.6156 34.8379C38.7638 34.8365 38.9109 34.8647 39.0481 34.9208C39.1854 34.9769 39.3101 35.0598 39.4149 35.1646C39.5198 35.2694 39.6026 35.3941 39.6587 35.5314C39.7148 35.6686 39.743 35.8157 39.7416 35.9639C39.7402 36.1122 39.7092 36.2587 39.6505 36.3948C39.5919 36.531 39.5066 36.6541 39.3998 36.7569L27.0782 49.0799C26.8285 49.3303 26.6884 49.6695 26.6884 50.0232C26.6884 50.3768 26.8285 50.716 27.0782 50.9665C27.2871 51.1756 27.4044 51.4591 27.4044 51.7547C27.4044 52.0503 27.2871 52.3339 27.0782 52.543L24.9547 54.6705L40.2132 69.9238L42.3354 67.8016C42.4389 67.698 42.5619 67.6158 42.6972 67.5597C42.8325 67.5036 42.9775 67.4747 43.124 67.4747C43.2705 67.4747 43.4155 67.5036 43.5508 67.5597C43.6862 67.6158 43.8091 67.698 43.9126 67.8016C44.1641 68.0516 44.5043 68.1919 44.8589 68.1919C45.2136 68.1919 45.5538 68.0516 45.8053 67.8016L61.1746 52.4242C61.3877 52.2227 61.6699 52.1104 61.9632 52.1104C62.2565 52.1104 62.5387 52.2227 62.7518 52.4242C62.8544 52.5277 62.9765 52.6098 63.1111 52.6658C63.2456 52.7218 63.3899 52.7505 63.5357 52.7504C63.68 52.7505 63.8229 52.722 63.956 52.6664C64.0892 52.6109 64.2101 52.5295 64.3115 52.4269L67.9163 48.8222C68.0191 48.7153 68.1422 48.6301 68.2783 48.5714C68.4145 48.5127 68.561 48.4818 68.7092 48.4804C68.8575 48.479 69.0046 48.5071 69.1418 48.5632C69.279 48.6193 69.4037 48.7022 69.5086 48.807C69.6134 48.9119 69.6963 49.0366 69.7524 49.1738C69.8085 49.3111 69.8366 49.4581 69.8352 49.6064C69.8338 49.7546 69.8029 49.9011 69.7442 50.0373C69.6855 50.1734 69.6003 50.2965 69.4935 50.3994L65.8914 54.0014C65.5841 54.3119 65.2182 54.5583 64.815 54.7264C64.4118 54.8945 63.9792 54.9809 63.5424 54.9806H63.537C63.0391 54.9816 62.5473 54.8706 62.0981 54.6558L47.3838 69.3774C46.852 69.9081 46.1665 70.2577 45.4247 70.3766C44.683 70.4955 43.9226 70.3777 43.2515 70.0399L41.0032 72.2882C40.8998 72.392 40.7769 72.4743 40.6415 72.5304C40.5062 72.5865 40.3611 72.6152 40.2146 72.6151V72.6144Z" fill="#444444"/>
<path d="M79.9836 83.8358H60.7048C60.409 83.8358 60.1252 83.7183 59.9161 83.5091C59.7069 83.2999 59.5894 83.0162 59.5894 82.7204V80.4948C59.5894 80.3484 59.6182 80.2033 59.6743 80.068C59.7304 79.9327 59.8126 79.8098 59.9162 79.7062L91.1918 48.4307C91.2946 48.3239 91.4177 48.2386 91.5538 48.18C91.69 48.1213 91.8365 48.0903 91.9847 48.0889C92.133 48.0875 92.28 48.1157 92.4173 48.1718C92.5545 48.2278 92.6792 48.3107 92.7841 48.4156C92.8889 48.5204 92.9718 48.6451 93.0279 48.7823C93.084 48.9196 93.1121 49.0666 93.1107 49.2149C93.1093 49.3632 93.0784 49.5096 93.0197 49.6458C92.961 49.782 92.8758 49.905 92.769 50.0079L61.8182 80.9586V81.6069H79.9816C80.2726 81.6141 80.5492 81.7347 80.7525 81.943C80.9558 82.1514 81.0696 82.4309 81.0696 82.722C81.0696 83.0131 80.9558 83.2927 80.7525 83.501C80.5492 83.7094 80.2726 83.83 79.9816 83.8372L79.9836 83.8358Z" fill="#444444"/>
<path d="M47.4725 46.8121C48.8013 46.8121 49.8785 45.7349 49.8785 44.4061C49.8785 43.0772 48.8013 42 47.4725 42C46.1436 42 45.0664 43.0772 45.0664 44.4061C45.0664 45.7349 46.1436 46.8121 47.4725 46.8121Z" fill="#444444"/>
<path d="M46.2684 22.6648C45.9725 22.6648 45.6888 22.5473 45.4796 22.3381C45.2704 22.1289 45.1529 21.8452 45.1529 21.5494V13.1291C45.1493 12.9804 45.1754 12.8324 45.2298 12.6939C45.2842 12.5555 45.3658 12.4293 45.4697 12.3228C45.5736 12.2163 45.6978 12.1317 45.8349 12.0739C45.972 12.0161 46.1193 11.9863 46.268 11.9863C46.4168 11.9863 46.5641 12.0161 46.7012 12.0739C46.8383 12.1317 46.9625 12.2163 47.0664 12.3228C47.1703 12.4293 47.2519 12.5555 47.3063 12.6939C47.3607 12.8324 47.3868 12.9804 47.3832 13.1291V21.5494C47.3832 21.8451 47.2657 22.1287 47.0567 22.3379C46.8476 22.547 46.5641 22.6646 46.2684 22.6648Z" fill="#444444"/>
<path d="M47.4718 52.7394C45.7013 52.7391 43.9769 52.175 42.5486 51.1288C41.1203 50.0826 40.0623 48.6087 39.528 46.9208C38.9937 45.2328 39.0108 43.4186 39.5769 41.7411C40.143 40.0636 41.2286 38.6099 42.6764 37.5909C41.9239 35.4436 41.5413 33.1842 41.5449 30.9089V25.1585C41.5449 24.8627 41.6625 24.579 41.8717 24.3699L45.4805 20.7611C45.6936 20.5596 45.9758 20.4473 46.2691 20.4473C46.5624 20.4473 46.8446 20.5596 47.0577 20.7611L50.6671 24.3699C50.8763 24.579 50.9939 24.8627 50.994 25.1585V30.9089C50.9934 32.8246 51.4975 34.7065 52.4557 36.3653L54.694 40.2399C55.4235 41.5074 55.8068 42.9445 55.8055 44.4069C55.8043 45.8693 55.4185 47.3057 54.6868 48.572C53.9552 49.8382 52.9034 50.8898 51.637 51.6213C50.3707 52.3527 48.9342 52.7383 47.4718 52.7394ZM43.7731 25.6202V30.9082C43.769 33.2138 44.2112 35.4983 45.0751 37.6358C45.1777 37.8901 45.1831 38.1734 45.0901 38.4314C44.9971 38.6894 44.8123 38.9041 44.5711 39.0345C43.6218 39.5469 42.8253 40.3017 42.2627 41.2221C41.7001 42.1425 41.3915 43.1956 41.3684 44.274C41.3453 45.3525 41.6084 46.4179 42.131 47.3615C42.6537 48.3052 43.4171 49.0935 44.3435 49.6461C45.2699 50.1987 46.3263 50.4959 47.405 50.5073C48.4836 50.5188 49.546 50.2441 50.484 49.7113C51.422 49.1785 52.2019 48.4066 52.7445 47.4743C53.287 46.5419 53.5727 45.4824 53.5725 44.4037C53.5785 43.3327 53.2982 42.2796 52.7604 41.3533L50.5222 37.4788C49.3676 35.4808 48.76 33.2138 48.7604 30.9062V25.6202L46.2664 23.1262L43.7731 25.6202Z" fill="#444444"/>
</g>
<defs>
<clipPath id="clip0_397_1694">
<rect width="112.082" height="112.082" fill="white" transform="translate(0.163818)"/>
</clipPath>
</defs>
</svg>
