<svg width="113" height="113" viewBox="0 0 113 113" fill="none" xmlns="http://www.w3.org/2000/svg">
<g clip-path="url(#clip0_397_1705)">
<path d="M56.2866 111.803C87.0833 111.803 112.049 86.8375 112.049 56.0407C112.049 25.244 87.0833 0.27832 56.2866 0.27832C25.4899 0.27832 0.52417 25.244 0.52417 56.0407C0.52417 86.8375 25.4899 111.803 56.2866 111.803Z" fill="#F0F0F0"/>
<path d="M56.2866 112.082C45.2027 112.082 34.3678 108.795 25.1519 102.637C15.936 96.4795 8.7531 87.7271 4.51149 77.4869C0.269887 67.2468 -0.839911 55.9788 1.32244 45.1079C3.48479 34.2371 8.82218 24.2515 16.6596 16.414C24.4971 8.57657 34.4827 3.23919 45.3535 1.07684C56.2244 -1.08552 67.4924 0.0242819 77.7325 4.26589C87.9727 8.5075 96.7251 15.6904 102.883 24.9063C109.041 34.1222 112.328 44.9571 112.328 56.041C112.328 70.904 106.423 85.1582 95.9135 95.6679C85.4038 106.178 71.1496 112.082 56.2866 112.082ZM56.2866 0.55775C45.313 0.55775 34.5859 3.81178 25.4618 9.90836C16.3376 16.0049 9.22616 24.6702 5.02676 34.8085C0.827371 44.9467 -0.271382 56.1025 1.86945 66.8652C4.01028 77.6279 9.29455 87.5141 17.054 95.2735C24.8135 103.033 34.6996 108.317 45.4623 110.458C56.225 112.599 67.3809 111.5 77.5191 107.301C87.6573 103.101 96.3226 95.99 102.419 86.8658C108.516 77.7416 111.77 67.0145 111.77 56.041C111.77 48.7548 110.335 41.54 107.546 34.8085C104.758 28.0769 100.671 21.9605 95.5191 16.8084C90.3671 11.6563 84.2506 7.56945 77.5191 4.78116C70.7876 1.99287 63.5727 0.55775 56.2866 0.55775Z" fill="#E3E3E3"/>
<path d="M40.5669 83.694L19.672 83.6685C19.3765 83.668 19.0933 83.5502 18.8846 83.3411C18.6758 83.132 18.5586 82.8486 18.5586 82.5531V74.6134C18.5586 74.3474 18.6537 74.0901 18.8268 73.888C18.9998 73.6859 19.2394 73.5523 19.5022 73.5114L22.9801 72.9704C23.4048 72.9061 23.8062 72.735 24.1466 72.4731C24.4871 72.2112 24.7554 71.8671 24.9265 71.4731L40.8092 35.1055C40.8955 34.9071 41.0376 34.738 41.2182 34.6188C41.3989 34.4996 41.6103 34.4356 41.8267 34.4344L49.7791 34.3975H49.7838C49.996 34.3975 50.2037 34.458 50.3828 34.5719C50.5618 34.6857 50.7046 34.8483 50.7946 35.0404L57.6691 49.7648C57.7311 49.8976 57.7663 50.0414 57.7727 50.1879C57.7791 50.3343 57.7566 50.4806 57.7064 50.6184C57.6563 50.7561 57.5795 50.8827 57.4805 50.9908C57.3814 51.0989 57.2621 51.1864 57.1292 51.2483C56.9963 51.3103 56.8526 51.3455 56.7061 51.3519C56.5596 51.3583 56.4133 51.3358 56.2756 51.2856C56.1378 51.2355 56.0113 51.1587 55.9032 51.0597C55.7951 50.9606 55.7076 50.8413 55.6456 50.7084L49.0757 36.6337L42.5656 36.6639L26.9654 72.3657C26.6453 73.104 26.143 73.749 25.5056 74.2402C24.8682 74.7315 24.1166 75.0529 23.3211 75.1745L20.7875 75.5684V81.4376L39.4515 81.4618V75.8161C38.773 75.6864 38.1307 75.4111 37.5688 75.0092C37.007 74.6074 36.5389 74.0885 36.1969 73.4884C35.8548 72.8883 35.647 72.2211 35.5875 71.5329C35.5281 70.8447 35.6186 70.1518 35.8528 69.5019L37.1118 66.0119C37.1895 65.7959 37.3319 65.6091 37.5196 65.4769C37.7073 65.3448 37.9313 65.2738 38.1608 65.2737H51.7912C52.0055 65.2737 52.2153 65.3355 52.3954 65.4517C52.5755 65.5679 52.7183 65.7335 52.8067 65.9287L54.2758 69.171C54.556 69.7895 54.7012 70.4606 54.7017 71.1396C54.7021 71.8186 54.5578 72.4899 54.2783 73.1088C53.9989 73.7276 53.5908 74.2798 53.0811 74.7284C52.5715 75.1771 51.972 75.512 51.3228 75.7107V81.4611H73.2022V75.7617L70.7498 75.5879C69.8774 75.5276 69.0384 75.2284 68.3247 74.723C67.611 74.2177 67.0501 73.5257 66.7035 72.7228C66.5907 72.4523 66.5888 72.1482 66.6984 71.8764C66.808 71.6046 67.0201 71.3868 67.289 71.2701C67.5578 71.1535 67.8618 71.1473 68.1352 71.253C68.4085 71.3586 68.6293 71.5677 68.7498 71.8348C68.9345 72.2631 69.2336 72.6322 69.6142 72.9018C69.9948 73.1714 70.4423 73.3309 70.9076 73.363L74.3975 73.61C74.679 73.6301 74.9424 73.756 75.1346 73.9625C75.3269 74.169 75.4338 74.4406 75.4338 74.7228V82.5752C75.4338 82.8711 75.3163 83.1548 75.1071 83.364C74.8979 83.5732 74.6142 83.6907 74.3183 83.6907H50.2093C49.9135 83.6907 49.6298 83.5732 49.4206 83.364C49.2114 83.1548 49.0939 82.8711 49.0939 82.5752V74.7973C49.094 74.5167 49.1999 74.2464 49.3905 74.0404C49.5811 73.8344 49.8423 73.7078 50.1221 73.6859C50.5297 73.6533 50.9236 73.5232 51.2704 73.3065C51.6172 73.0898 51.9068 72.7929 52.1148 72.4408C52.3228 72.0886 52.4431 71.6917 52.4655 71.2834C52.4879 70.875 52.4118 70.4673 52.2436 70.0945L51.0704 67.5066H38.9454L37.9521 70.2583C37.8219 70.6209 37.7756 71.0082 37.8165 71.3913C37.8575 71.7743 37.9847 72.1432 38.1885 72.47C38.3924 72.7969 38.6677 73.0733 38.9938 73.2785C39.3198 73.4838 39.688 73.6125 40.0709 73.655L40.6884 73.7221C40.9616 73.752 41.214 73.8817 41.3975 74.0863C41.5809 74.2909 41.6823 74.556 41.6824 74.8308V82.5759C41.6824 82.7224 41.6535 82.8674 41.5975 83.0028C41.5414 83.1381 41.4592 83.2611 41.3557 83.3647C41.2521 83.4682 41.1291 83.5504 40.9938 83.6064C40.8584 83.6625 40.7134 83.6914 40.5669 83.6914V83.694ZM49.3207 59.585H42.1743C41.9909 59.5848 41.8103 59.5394 41.6486 59.4527C41.4869 59.3661 41.349 59.2409 41.2473 59.0882C41.1455 58.9356 41.083 58.7602 41.0652 58.5775C41.0475 58.3949 41.075 58.2108 41.1454 58.0414L44.72 49.5178C44.8054 49.3155 44.9486 49.143 45.1316 49.0217C45.3146 48.9004 45.5293 48.8358 45.7489 48.8359C45.9687 48.8358 46.1836 48.9007 46.3666 49.0224C46.5497 49.1441 46.6927 49.3171 46.7777 49.5198L50.3496 58.0434C50.42 58.2128 50.4476 58.397 50.4298 58.5796C50.412 58.7622 50.3495 58.9376 50.2478 59.0902C50.146 59.2429 50.0082 59.3681 49.8465 59.4548C49.6848 59.5414 49.5042 59.5868 49.3207 59.587V59.585ZM43.8515 57.3548H47.6435L45.7482 52.8326L43.8515 57.3548Z" fill="#444444"/>
<path d="M80.6331 29.6041H63.9041C63.7553 29.6078 63.6074 29.5816 63.4689 29.5272C63.3304 29.4728 63.2042 29.3913 63.0977 29.2874C62.9912 29.1835 62.9066 29.0593 62.8488 28.9222C62.791 28.7851 62.7613 28.6378 62.7613 28.489C62.7613 28.3402 62.791 28.193 62.8488 28.0558C62.9066 27.9187 62.9912 27.7946 63.0977 27.6907C63.2042 27.5868 63.3304 27.5052 63.4689 27.4508C63.6074 27.3964 63.7553 27.3703 63.9041 27.3739H79.5177V25.143H59.4436V27.3732H60.5591C60.7078 27.3696 60.8558 27.3957 60.9943 27.4501C61.1327 27.5045 61.2589 27.5861 61.3654 27.69C61.4719 27.7939 61.5565 27.9181 61.6143 28.0552C61.6721 28.1923 61.7019 28.3396 61.7019 28.4884C61.7019 28.6371 61.6721 28.7844 61.6143 28.9215C61.5565 29.0586 61.4719 29.1828 61.3654 29.2867C61.2589 29.3906 61.1327 29.4722 60.9943 29.5266C60.8558 29.581 60.7078 29.6071 60.5591 29.6035H58.3288C58.033 29.6035 57.7493 29.4859 57.5401 29.2768C57.3309 29.0676 57.2134 28.7839 57.2134 28.488V24.0276C57.2134 23.7317 57.3309 23.448 57.5401 23.2388C57.7493 23.0296 58.033 22.9121 58.3288 22.9121H80.6338C80.9296 22.9121 81.2134 23.0296 81.4225 23.2388C81.6317 23.448 81.7492 23.7317 81.7492 24.0276V28.4894C81.7492 28.6358 81.7202 28.7809 81.6641 28.9162C81.6079 29.0515 81.5257 29.1744 81.4221 29.2779C81.3184 29.3814 81.1954 29.4635 81.06 29.5195C80.9247 29.5755 80.7796 29.6042 80.6331 29.6041Z" fill="#444444"/>
<path d="M78.4023 34.0651H60.5584C60.2626 34.0651 59.9789 33.9476 59.7697 33.7384C59.5605 33.5292 59.443 33.2455 59.443 32.9496V28.4885C59.4393 28.3398 59.4655 28.1918 59.5199 28.0533C59.5743 27.9148 59.6558 27.7886 59.7597 27.6821C59.8636 27.5757 59.9878 27.491 60.1249 27.4332C60.262 27.3755 60.4093 27.3457 60.5581 27.3457C60.7069 27.3457 60.8541 27.3755 60.9913 27.4332C61.1284 27.491 61.2525 27.5757 61.3564 27.6821C61.4603 27.7886 61.5419 27.9148 61.5963 28.0533C61.6507 28.1918 61.6768 28.3398 61.6732 28.4885V31.8342H77.2868V28.4885C77.2832 28.3398 77.3093 28.1918 77.3637 28.0533C77.4181 27.9148 77.4997 27.7886 77.6036 27.6821C77.7075 27.5757 77.8316 27.491 77.9687 27.4332C78.1058 27.3755 78.2531 27.3457 78.4019 27.3457C78.5507 27.3457 78.698 27.3755 78.8351 27.4332C78.9722 27.491 79.0964 27.5757 79.2003 27.6821C79.3042 27.7886 79.3857 27.9148 79.4401 28.0533C79.4945 28.1918 79.5207 28.3398 79.517 28.4885V32.9503C79.5169 33.2459 79.3993 33.5294 79.1903 33.7384C78.9813 33.9474 78.6979 34.0649 78.4023 34.0651Z" fill="#444444"/>
<path d="M75.0565 42.9875H63.904C63.6082 42.9875 63.3245 42.87 63.1153 42.6608C62.9061 42.4516 62.7886 42.1679 62.7886 41.872V32.9498C62.7886 32.6539 62.9061 32.3702 63.1153 32.161C63.3245 31.9518 63.6082 31.8343 63.904 31.8343H75.0565C75.2052 31.8307 75.3532 31.8568 75.4917 31.9112C75.6302 31.9656 75.7564 32.0472 75.8629 32.1511C75.9694 32.255 76.054 32.3791 76.1118 32.5163C76.1696 32.6534 76.1993 32.8006 76.1993 32.9494C76.1993 33.0982 76.1696 33.2455 76.1118 33.3826C76.054 33.5197 75.9694 33.6439 75.8629 33.7478C75.7564 33.8517 75.6302 33.9333 75.4917 33.9877C75.3532 34.0421 75.2052 34.0682 75.0565 34.0645H65.0188V40.7559H73.9411V36.2961C73.9374 36.1474 73.9636 35.9994 74.018 35.8609C74.0724 35.7224 74.1539 35.5962 74.2578 35.4898C74.3617 35.3833 74.4859 35.2986 74.623 35.2409C74.7601 35.1831 74.9074 35.1533 75.0562 35.1533C75.205 35.1533 75.3522 35.1831 75.4894 35.2409C75.6265 35.2986 75.7506 35.3833 75.8545 35.4898C75.9584 35.5962 76.04 35.7224 76.0944 35.8609C76.1488 35.9994 76.1749 36.1474 76.1713 36.2961V41.872C76.1713 42.1679 76.0538 42.4516 75.8446 42.6608C75.6354 42.87 75.3517 42.9875 75.0558 42.9875H75.0565Z" fill="#444444"/>
<path d="M69.4807 51.9093C69.2275 51.9096 68.9817 51.8235 68.7841 51.665L57.6316 42.7428C57.451 42.5985 57.3196 42.4017 57.2558 42.1795C57.1919 41.9573 57.1987 41.7207 57.2753 41.5026C57.3518 41.2845 57.4942 41.0955 57.6829 40.9619C57.8715 40.8283 58.0971 40.7566 58.3283 40.7568H80.6332C80.8642 40.757 81.0895 40.8289 81.2779 40.9626C81.4663 41.0962 81.6085 41.2851 81.685 41.5031C81.7614 41.721 81.7683 41.9574 81.7047 42.1794C81.6411 42.4015 81.5101 42.5983 81.3299 42.7428L70.1767 51.6644C69.9794 51.8229 69.7339 51.9093 69.4807 51.9093ZM61.5075 42.9871L69.4807 49.363L77.454 42.9871H61.5075Z" fill="#444444"/>
<path d="M76.6814 66.7062C76.5348 66.7063 76.3896 66.6774 76.2541 66.6212C76.1186 66.565 75.9956 66.4826 75.8922 66.3787L72.2378 62.7169C72.1343 62.6132 72.0522 62.4901 71.9963 62.3547C71.9404 62.2193 71.9117 62.0743 71.9119 61.9278C71.912 61.7813 71.941 61.6363 71.9972 61.501C72.0534 61.3657 72.1357 61.2428 72.2394 61.1394C72.3431 61.0359 72.4662 60.9538 72.6016 60.8979C72.737 60.842 72.8821 60.8133 73.0285 60.8135C73.175 60.8136 73.32 60.8426 73.4553 60.8988C73.5906 60.955 73.7135 61.0373 73.817 61.141L77.468 64.8015C77.6238 64.9576 77.7298 65.1563 77.7726 65.3726C77.8155 65.5889 77.7933 65.813 77.7088 66.0167C77.6244 66.2204 77.4815 66.3944 77.2981 66.5169C77.1148 66.6394 76.8992 66.7048 76.6787 66.7049L76.6814 66.7062Z" fill="#A04F55"/>
<path d="M66.074 56.0757C65.9274 56.0759 65.7821 56.047 65.6467 55.9908C65.5112 55.9346 65.3882 55.8522 65.2848 55.7482L61.7143 52.1703C61.5119 51.9596 61.4002 51.6779 61.4034 51.3857C61.4065 51.0935 61.5242 50.8143 61.731 50.6079C61.9379 50.4016 62.2175 50.2847 62.5096 50.2823C62.8018 50.2799 63.0832 50.3922 63.2935 50.5951L66.864 54.173C67.0195 54.3292 67.1254 54.5279 67.1681 54.7442C67.2108 54.9604 67.1885 55.1844 67.1039 55.388C67.0194 55.5916 66.8765 55.7655 66.6932 55.8879C66.5099 56.0103 66.2944 56.0757 66.074 56.0757Z" fill="#A04F55"/>
<path d="M79.5137 59.5016L74.3237 59.4962C74.175 59.4998 74.027 59.4737 73.8885 59.4193C73.75 59.3649 73.6238 59.2833 73.5173 59.1794C73.4109 59.0755 73.3262 58.9514 73.2685 58.8142C73.2107 58.6771 73.1809 58.5299 73.1809 58.3811C73.1809 58.2323 73.2107 58.085 73.2685 57.9479C73.3262 57.8108 73.4109 57.6866 73.5173 57.5827C73.6238 57.4788 73.75 57.3973 73.8885 57.3429C74.027 57.2885 74.175 57.2623 74.3237 57.266L79.5137 57.2713C79.6625 57.2677 79.8104 57.2938 79.9489 57.3482C80.0874 57.4026 80.2136 57.4842 80.3201 57.5881C80.4266 57.692 80.5112 57.8162 80.569 57.9533C80.6268 58.0904 80.6565 58.2377 80.6565 58.3864C80.6565 58.5352 80.6268 58.6825 80.569 58.8196C80.5112 58.9567 80.4266 59.0809 80.3201 59.1848C80.2136 59.2887 80.0874 59.3703 79.9489 59.4247C79.8104 59.4791 79.6625 59.5052 79.5137 59.5016Z" fill="#A04F55"/>
<path d="M64.6411 59.4859L59.4477 59.4806C59.299 59.4842 59.151 59.4581 59.0125 59.4037C58.8741 59.3493 58.7479 59.2677 58.6414 59.1638C58.5349 59.0599 58.4503 58.9357 58.3925 58.7986C58.3347 58.6615 58.3049 58.5142 58.3049 58.3654C58.3049 58.2167 58.3347 58.0694 58.3925 57.9323C58.4503 57.7952 58.5349 57.671 58.6414 57.5671C58.7479 57.4632 58.8741 57.3816 59.0125 57.3272C59.151 57.2728 59.299 57.2467 59.4477 57.2503L64.6411 57.2557C64.9321 57.2628 65.2088 57.3835 65.4121 57.5918C65.6154 57.8002 65.7292 58.0797 65.7292 58.3708C65.7292 58.6619 65.6154 58.9415 65.4121 59.1498C65.2088 59.3582 64.9321 59.4788 64.6411 59.4859Z" fill="#A04F55"/>
<path d="M72.8969 56.0835C72.6763 56.0834 72.4606 56.0179 72.2772 55.8953C72.0937 55.7726 71.9508 55.5983 71.8665 55.3944C71.7821 55.1905 71.7601 54.9662 71.8033 54.7498C71.8465 54.5334 71.9528 54.3347 72.109 54.1788L75.6842 50.6116C75.7871 50.5049 75.9103 50.4198 76.0465 50.3612C76.1827 50.3026 76.3292 50.2718 76.4775 50.2705C76.6257 50.2693 76.7727 50.2976 76.9099 50.3538C77.0471 50.41 77.1717 50.493 77.2765 50.5979C77.3812 50.7028 77.464 50.8276 77.52 50.9649C77.576 51.1022 77.604 51.2492 77.6025 51.3975C77.6009 51.5457 77.5699 51.6922 77.5111 51.8283C77.4523 51.9644 77.3669 52.0874 77.26 52.1902L73.6848 55.7573C73.5814 55.8608 73.4586 55.9429 73.3234 55.9989C73.1882 56.0549 73.0432 56.0836 72.8969 56.0835Z" fill="#A04F55"/>
<path d="M62.268 66.6934C62.0473 66.6933 61.8317 66.6278 61.6482 66.5051C61.4648 66.3825 61.3219 66.2082 61.2375 66.0043C61.1532 65.8004 61.1312 65.5761 61.1744 65.3597C61.2176 65.1433 61.3239 64.9446 61.4801 64.7886L65.2553 61.0208C65.3582 60.9141 65.4814 60.829 65.6176 60.7704C65.7538 60.7118 65.9003 60.681 66.0486 60.6797C66.1968 60.6785 66.3438 60.7067 66.481 60.7629C66.6182 60.8192 66.7428 60.9021 66.8476 61.0071C66.9523 61.112 67.0351 61.2368 67.0911 61.374C67.1471 61.5113 67.1751 61.6584 67.1736 61.8067C67.172 61.9549 67.141 62.1014 67.0822 62.2375C67.0234 62.3736 66.938 62.4966 66.8311 62.5993L63.0559 66.3672C62.9525 66.4707 62.8297 66.5528 62.6945 66.6087C62.5592 66.6647 62.4143 66.6935 62.268 66.6934Z" fill="#A04F55"/>
<path d="M69.4753 62.1035C69.7708 62.1035 70.0542 62.2209 70.2631 62.4298C70.472 62.6388 70.5894 62.9221 70.5894 63.2176V68.6385C70.5894 68.785 70.5606 68.93 70.5045 69.0654C70.4485 69.2007 70.3663 69.3237 70.2627 69.4272C70.1591 69.5308 70.0362 69.613 69.9008 69.669C69.7655 69.7251 69.6205 69.7539 69.474 69.7539C69.1785 69.7539 68.8951 69.6366 68.6862 69.4276C68.4772 69.2187 68.3599 68.9353 68.3599 68.6398V63.219C68.3599 62.9231 68.4774 62.6394 68.6866 62.4302C68.8958 62.221 69.1795 62.1035 69.4753 62.1035Z" fill="#A04F55"/>
<path d="M69.482 59.5167C69.1862 59.5158 68.903 59.3975 68.6944 59.1879C68.4859 58.9782 68.3692 58.6943 68.3699 58.3986L68.3914 50.7918C68.3922 50.4965 68.5102 50.2137 68.7192 50.0052C68.9283 49.7967 69.2115 49.6797 69.5068 49.6797C69.8025 49.6806 70.0858 49.7989 70.2943 50.0085C70.5029 50.2182 70.6196 50.5021 70.6189 50.7978L70.5974 58.4046C70.5965 58.6999 70.4786 58.9827 70.2695 59.1912C70.0604 59.3997 69.7772 59.5167 69.482 59.5167Z" fill="#444444"/>
</g>
<defs>
<clipPath id="clip0_397_1705">
<rect width="112.082" height="112.082" fill="white" transform="translate(0.245605)"/>
</clipPath>
</defs>
</svg>
