<svg width="113" height="113" viewBox="0 0 113 113" fill="none" xmlns="http://www.w3.org/2000/svg">
<g clip-path="url(#clip0_397_1683)">
<path d="M56.123 111.803C86.9198 111.803 111.885 86.8375 111.885 56.0407C111.885 25.244 86.9198 0.27832 56.123 0.27832C25.3263 0.27832 0.360596 25.244 0.360596 56.0407C0.360596 86.8375 25.3263 111.803 56.123 111.803Z" fill="#F0F0F0"/>
<path d="M56.123 112.082C45.0392 112.082 34.2042 108.795 24.9883 102.637C15.7724 96.4795 8.58953 87.7271 4.34792 77.4869C0.106313 67.2468 -1.00348 55.9788 1.15887 45.1079C3.32122 34.2371 8.6586 24.2515 16.4961 16.414C24.3335 8.57657 34.3191 3.23919 45.19 1.07684C56.0608 -1.08552 67.3288 0.0242819 77.569 4.26589C87.8091 8.5075 96.5615 15.6904 102.719 24.9063C108.877 34.1222 112.164 44.9571 112.164 56.041C112.164 70.904 106.26 85.1582 95.7499 95.6679C85.2402 106.178 70.986 112.082 56.123 112.082ZM56.123 0.55775C45.1495 0.55775 34.4223 3.81178 25.2982 9.90836C16.174 16.0049 9.06258 24.6702 4.86319 34.8085C0.663797 44.9467 -0.434957 56.1025 1.70588 66.8652C3.84671 77.6279 9.13097 87.5141 16.8904 95.2735C24.6499 103.033 34.5361 108.317 45.2988 110.458C56.0615 112.599 67.2173 111.5 77.3555 107.301C87.4938 103.101 96.159 95.99 102.256 86.8658C108.352 77.7416 111.606 67.0145 111.606 56.041C111.606 48.7548 110.171 41.54 107.383 34.8085C104.595 28.0769 100.508 21.9605 95.3556 16.8084C90.2035 11.6563 84.0871 7.56945 77.3555 4.78116C70.624 1.99287 63.4092 0.55775 56.123 0.55775Z" fill="#E3E3E3"/>
<path d="M55.1546 30.5158C54.8588 30.5158 54.575 30.3983 54.3659 30.1891C54.1567 29.9799 54.0392 29.6962 54.0392 29.4004V22.5969C54.0355 22.4482 54.0616 22.3002 54.116 22.1617C54.1704 22.0232 54.252 21.897 54.3559 21.7905C54.4598 21.6841 54.584 21.5994 54.7211 21.5416C54.8582 21.4839 55.0055 21.4541 55.1543 21.4541C55.3031 21.4541 55.4503 21.4839 55.5874 21.5416C55.7246 21.5994 55.8487 21.6841 55.9526 21.7905C56.0565 21.897 56.1381 22.0232 56.1925 22.1617C56.2469 22.3002 56.273 22.4482 56.2694 22.5969V29.4004C56.2694 29.6961 56.152 29.9797 55.9429 30.1889C55.7339 30.398 55.4503 30.5156 55.1546 30.5158Z" fill="#A04F55"/>
<path d="M32.8079 40.2383C32.6614 40.2384 32.5163 40.2096 32.381 40.1536C32.2457 40.0975 32.1227 40.0152 32.0193 39.9115L27.2085 35.1007C27.1017 34.9978 27.0165 34.8747 26.9578 34.7386C26.8991 34.6024 26.8682 34.4559 26.8667 34.3077C26.8653 34.1594 26.8935 34.0124 26.9496 33.8751C27.0057 33.7379 27.0886 33.6132 27.1934 33.5083C27.2982 33.4035 27.4229 33.3206 27.5602 33.2645C27.6974 33.2084 27.8445 33.1803 27.9927 33.1817C28.141 33.1831 28.2875 33.214 28.4236 33.2727C28.5598 33.3314 28.6829 33.4166 28.7857 33.5235L33.5965 38.3343C33.7525 38.4903 33.8586 38.689 33.9017 38.9053C33.9447 39.1217 33.9226 39.3459 33.8382 39.5497C33.7538 39.7535 33.6109 39.9277 33.4275 40.0502C33.2441 40.1728 33.0285 40.2382 32.8079 40.2383Z" fill="#A04F55"/>
<path d="M23.8817 62.9148H17.0776C16.7866 62.9077 16.5099 62.787 16.3066 62.5787C16.1033 62.3703 15.9895 62.0908 15.9895 61.7997C15.9895 61.5086 16.1033 61.229 16.3066 61.0207C16.5099 60.8123 16.7866 60.6917 17.0776 60.6846H23.8817C24.1727 60.6917 24.4494 60.8123 24.6527 61.0207C24.856 61.229 24.9698 61.5086 24.9698 61.7997C24.9698 62.0908 24.856 62.3703 24.6527 62.5787C24.4494 62.787 24.1727 62.9077 23.8817 62.9148Z" fill="#A04F55"/>
<path d="M94.3576 61.7901H87.5542C87.4054 61.7938 87.2575 61.7676 87.119 61.7132C86.9805 61.6588 86.8543 61.5773 86.7478 61.4734C86.6413 61.3695 86.5567 61.2453 86.4989 61.1082C86.4411 60.9711 86.4114 60.8238 86.4114 60.675C86.4114 60.5262 86.4411 60.379 86.4989 60.2418C86.5567 60.1047 86.6413 59.9806 86.7478 59.8767C86.8543 59.7728 86.9805 59.6912 87.119 59.6368C87.2575 59.5824 87.4054 59.5563 87.5542 59.5599H94.3576C94.6486 59.567 94.9253 59.6877 95.1286 59.896C95.3319 60.1044 95.4457 60.3839 95.4457 60.675C95.4457 60.9661 95.3319 61.2457 95.1286 61.454C94.9253 61.6624 94.6486 61.783 94.3576 61.7901Z" fill="#A04F55"/>
<path d="M77.8312 39.4444C77.6106 39.4443 77.3951 39.3788 77.2117 39.2563C77.0283 39.1337 76.8854 38.9595 76.801 38.7557C76.7166 38.5519 76.6945 38.3277 76.7375 38.1114C76.7805 37.895 76.8867 37.6963 77.0426 37.5403L81.8534 32.7295C81.9563 32.6227 82.0793 32.5375 82.2155 32.4788C82.3517 32.4201 82.4981 32.3892 82.6464 32.3877C82.7947 32.3863 82.9417 32.4145 83.079 32.4706C83.2162 32.5267 83.3409 32.6096 83.4457 32.7144C83.5506 32.8192 83.6335 32.9439 83.6895 33.0812C83.7456 33.2184 83.7738 33.3655 83.7724 33.5137C83.771 33.662 83.74 33.8085 83.6814 33.9446C83.6227 34.0808 83.5374 34.2039 83.4306 34.3067L78.6198 39.1168C78.5164 39.2206 78.3935 39.3029 78.2582 39.359C78.1228 39.4151 77.9777 39.4439 77.8312 39.4437V39.4444Z" fill="#A04F55"/>
<path d="M44.8905 80.4414H35.1985C34.9026 80.4414 34.6189 80.3238 34.4097 80.1146C34.2005 79.9055 34.083 79.6217 34.083 79.3259V52.1028C34.083 51.9563 34.1119 51.8112 34.1679 51.6759C34.224 51.5406 34.3061 51.4176 34.4097 51.314C34.5133 51.2104 34.6363 51.1283 34.7716 51.0722C34.9069 51.0162 35.052 50.9873 35.1985 50.9873H44.8905C45.037 50.9873 45.1821 51.0162 45.3174 51.0722C45.4527 51.1283 45.5757 51.2104 45.6793 51.314C45.7828 51.4176 45.865 51.5406 45.9211 51.6759C45.9771 51.8112 46.006 51.9563 46.006 52.1028V79.3232C46.0063 79.4699 45.9777 79.6153 45.9218 79.7509C45.8659 79.8865 45.7838 80.0098 45.6802 80.1137C45.5766 80.2176 45.4535 80.3 45.318 80.3562C45.1825 80.4124 45.0372 80.4414 44.8905 80.4414ZM36.3146 78.2105H43.7751V53.2209H36.3146V78.2105Z" fill="#444444"/>
<path d="M78.897 61.237C78.8913 60.2223 78.5287 59.242 77.8729 58.4678C78.6607 57.9664 79.2646 57.2228 79.5937 56.3488C79.9227 55.4748 79.9593 54.5176 79.6978 53.621C79.4363 52.7245 78.8909 51.937 78.1435 51.377C77.3962 50.817 76.4873 50.5146 75.5534 50.5153H66.4707C64.8962 50.5153 64.8962 50.2583 64.8962 49.022C64.9454 47.7829 65.2906 46.5735 65.9029 45.4951C66.8364 43.8148 67.2713 41.9031 67.1566 39.9843C67.1439 36.0769 65.4271 34.5863 64.4049 34.044C63.7522 33.703 63.0197 33.5442 62.2844 33.5842C61.5491 33.6242 60.8382 33.8617 60.2263 34.2715C60.1524 34.3228 60.0848 34.3828 60.025 34.45C59.4255 35.2654 59.0451 36.2209 58.9203 37.2253C58.6932 38.4793 58.2726 39.6904 57.6733 40.8152C56.9728 41.9757 56.1539 43.0605 55.2296 44.0522C54.0488 45.2154 53.15 46.6335 52.6021 48.1979C51.7497 50.3071 50.2606 52.0979 48.3423 53.3208H46.006V55.551H48.59C48.7396 55.5511 48.8878 55.521 49.0255 55.4624C50.8115 54.7047 53.3276 52.2409 54.6827 49.0046C54.6988 48.9663 54.7127 48.9271 54.7243 48.8871C55.1095 47.569 55.9015 46.6676 56.9048 45.5274C57.9281 44.4229 58.8341 43.2153 59.6082 41.924C60.3198 40.607 60.8212 39.187 61.0941 37.7152C61.1847 37.1339 61.3588 36.5688 61.6109 36.0373C61.8786 35.89 62.1786 35.8111 62.4841 35.8079C62.7896 35.8046 63.0912 35.8769 63.362 36.0185C64.3573 36.5447 64.9278 38.0065 64.9278 40.03C64.9278 40.0588 64.9278 40.0877 64.9278 40.1159C65.0215 41.6629 64.6584 43.2033 63.8834 44.5455C63.1282 45.9204 62.7096 47.4547 62.662 49.0227C62.662 51.6328 63.8029 52.7462 66.4674 52.7462H75.5494C75.8266 52.7413 76.102 52.7916 76.3595 52.8942C76.6171 52.9969 76.8516 53.1498 77.0494 53.3441C77.2472 53.5384 77.4043 53.7701 77.5116 54.0258C77.6188 54.2815 77.6741 54.5559 77.6741 54.8332C77.6741 55.1104 77.6188 55.3849 77.5116 55.6406C77.4043 55.8963 77.2472 56.128 77.0494 56.3223C76.8516 56.5166 76.6171 56.6695 76.3595 56.7721C76.102 56.8748 75.8266 56.9251 75.5494 56.9201H75.4655C75.365 56.9214 75.2652 56.9365 75.1688 56.9651C74.9723 56.9364 74.7741 56.9214 74.5755 56.9201H74.4916C74.3429 56.9165 74.1949 56.9426 74.0564 56.997C73.9179 57.0514 73.7917 57.133 73.6853 57.2369C73.5788 57.3408 73.4941 57.465 73.4364 57.6021C73.3786 57.7392 73.3488 57.8864 73.3488 58.0352C73.3488 58.184 73.3786 58.3313 73.4364 58.4684C73.4941 58.6055 73.5788 58.7297 73.6853 58.8336C73.7917 58.9375 73.9179 59.0191 74.0564 59.0735C74.1949 59.1279 74.3429 59.154 74.4916 59.1504H74.5755C75.1289 59.1504 75.6597 59.3702 76.051 59.7615C76.4423 60.1528 76.6621 60.6836 76.6621 61.237C76.6621 61.7904 76.4423 62.3211 76.051 62.7124C75.6597 63.1037 75.1289 63.3236 74.5755 63.3236H73.0674C72.9187 63.3199 72.7707 63.3461 72.6323 63.4005C72.4938 63.4549 72.3676 63.5364 72.2611 63.6403C72.1546 63.7442 72.07 63.8684 72.0122 64.0055C71.9544 64.1426 71.9246 64.2899 71.9246 64.4387C71.9246 64.5875 71.9544 64.7347 72.0122 64.8718C72.07 65.009 72.1546 65.1331 72.2611 65.237C72.3676 65.3409 72.4938 65.4225 72.6323 65.4769C72.7707 65.5313 72.9187 65.5574 73.0674 65.5538H73.3359C73.6131 65.5488 73.8885 65.5991 74.1461 65.7018C74.4036 65.8044 74.6382 65.9573 74.836 66.1516C75.0338 66.3459 75.1909 66.5776 75.2981 66.8333C75.4054 67.089 75.4606 67.3635 75.4606 67.6407C75.4606 67.918 75.4054 68.1925 75.2981 68.4481C75.1909 68.7038 75.0338 68.9355 74.836 69.1298C74.6382 69.3241 74.4036 69.477 74.1461 69.5797C73.8885 69.6823 73.6131 69.7326 73.3359 69.7277H71.8285C71.6798 69.724 71.5318 69.7502 71.3933 69.8046C71.2548 69.859 71.1286 69.9405 71.0221 70.0444C70.9156 70.1483 70.831 70.2725 70.7732 70.4096C70.7155 70.5467 70.6857 70.694 70.6857 70.8428C70.6857 70.9916 70.7155 71.1388 70.7732 71.276C70.831 71.4131 70.9156 71.5372 71.0221 71.6411C71.1286 71.745 71.2548 71.8266 71.3933 71.881C71.5318 71.9354 71.6798 71.9615 71.8285 71.9579H71.9124C72.4658 71.9579 72.9965 72.1777 73.3879 72.569C73.7792 72.9604 73.999 73.4911 73.999 74.0445C73.999 74.5979 73.7792 75.1286 73.3879 75.5199C72.9965 75.9113 72.4658 76.1311 71.9124 76.1311H52.2135L49.4256 74.6062C49.2607 74.517 49.0761 74.4708 48.8886 74.472H46.0027V76.7022H48.602L51.3907 78.2271C51.5555 78.3163 51.7402 78.3625 51.9276 78.3613H71.9124C72.7148 78.3628 73.5017 78.1401 74.1845 77.7185C74.8672 77.2969 75.4187 76.693 75.7768 75.9749C76.1348 75.2568 76.2853 74.453 76.2112 73.654C76.1371 72.855 75.8414 72.0925 75.3574 71.4525C75.9162 71.1577 76.4033 70.7436 76.7841 70.2394C77.1649 69.7353 77.43 69.1535 77.5608 68.5354C77.6915 67.9173 77.6846 67.2779 77.5406 66.6628C77.3965 66.0476 77.1188 65.4717 76.7272 64.9759C77.3855 64.5982 77.9327 64.0536 78.3135 63.3971C78.6943 62.7406 78.8954 61.9953 78.8964 61.2363L78.897 61.237Z" fill="#444444"/>
</g>
<defs>
<clipPath id="clip0_397_1683">
<rect width="112.082" height="112.082" fill="white" transform="translate(0.0820312)"/>
</clipPath>
</defs>
</svg>
